<svg xmlns="http://www.w3.org/2000/svg" viewBox="0 0 300 390" width="300" height="390"><defs><clipPath id="Acluc"><rect x="9" y="9" width="282" height="372" rx="12"/></clipPath><radialGradient id="acg" cx="150" cy="150" r="200" gradientUnits="userSpaceOnUse"><stop offset="0" stop-color="#ffffff" stop-opacity="0.85"/><stop offset="1" stop-color="#ffffff" stop-opacity="0"/></radialGradient><linearGradient id="ach" x1="0" y1="0" x2="0" y2="1"><stop offset="0" stop-color="#fff0b3"/><stop offset="1" stop-color="#d49b30"/></linearGradient></defs><rect width="300" height="390" rx="18" fill="#1b1814"/><g clip-path="url(#Acluc)"><rect x="9" y="9" width="282" height="372" fill="#fffbea"/><path d="M150,66 173.7,69.4 150,150Z" fill="#fffdf6" stroke="#1b1814" stroke-width="2.4" stroke-linejoin="round"/><path d="M173.7,69.4 195.4,79.3 150,150Z" fill="#fff8e4" stroke="#1b1814" stroke-width="2.4" stroke-linejoin="round"/><path d="M195.4,79.3 213.5,95 150,150Z" fill="#f6e3a3" stroke="#1b1814" stroke-width="2.4" stroke-linejoin="round"/><path d="M213.5,95 226.4,115.1 150,150Z" fill="#fffdf6" stroke="#1b1814" stroke-width="2.4" stroke-linejoin="round"/><path d="M226.4,115.1 233.1,138 150,150Z" fill="#fffdf6" stroke="#1b1814" stroke-width="2.4" stroke-linejoin="round"/><path d="M233.1,138 233.1,162 150,150Z" fill="#fbf1cf" stroke="#1b1814" stroke-width="2.4" stroke-linejoin="round"/><path d="M233.1,162 226.4,184.9 150,150Z" fill="#fff8e4" stroke="#1b1814" stroke-width="2.4" stroke-linejoin="round"/><path d="M226.4,184.9 213.5,205 150,150Z" fill="#f6e3a3" stroke="#1b1814" stroke-width="2.4" stroke-linejoin="round"/><path d="M213.5,205 195.4,220.7 150,150Z" fill="#f6e3a3" stroke="#1b1814" stroke-width="2.4" stroke-linejoin="round"/><path d="M195.4,220.7 173.7,230.6 150,150Z" fill="#fffdf6" stroke="#1b1814" stroke-width="2.4" stroke-linejoin="round"/><path d="M173.7,230.6 150,234 150,150Z" fill="#f6e3a3" stroke="#1b1814" stroke-width="2.4" stroke-linejoin="round"/><path d="M150,234 126.3,230.6 150,150Z" fill="#fff8e4" stroke="#1b1814" stroke-width="2.4" stroke-linejoin="round"/><path d="M126.3,230.6 104.6,220.7 150,150Z" fill="#fbf1cf" stroke="#1b1814" stroke-width="2.4" stroke-linejoin="round"/><path d="M104.6,220.7 86.5,205 150,150Z" fill="#fff8e4" stroke="#1b1814" stroke-width="2.4" stroke-linejoin="round"/><path d="M86.5,205 73.6,184.9 150,150Z" fill="#fffdf6" stroke="#1b1814" stroke-width="2.4" stroke-linejoin="round"/><path d="M73.6,184.9 66.9,162 150,150Z" fill="#fbf1cf" stroke="#1b1814" stroke-width="2.4" stroke-linejoin="round"/><path d="M66.9,162 66.9,138 150,150Z" fill="#f6e3a3" stroke="#1b1814" stroke-width="2.4" stroke-linejoin="round"/><path d="M66.9,138 73.6,115.1 150,150Z" fill="#fffdf6" stroke="#1b1814" stroke-width="2.4" stroke-linejoin="round"/><path d="M73.6,115.1 86.5,95 150,150Z" fill="#fff8e4" stroke="#1b1814" stroke-width="2.4" stroke-linejoin="round"/><path d="M86.5,95 104.6,79.3 150,150Z" fill="#f6e3a3" stroke="#1b1814" stroke-width="2.4" stroke-linejoin="round"/><path d="M104.6,79.3 126.3,69.4 150,150Z" fill="#fffdf6" stroke="#1b1814" stroke-width="2.4" stroke-linejoin="round"/><path d="M126.3,69.4 150,66 150,150Z" fill="#f6e3a3" stroke="#1b1814" stroke-width="2.4" stroke-linejoin="round"/><path d="M167.6,27.3 201.5,37.2 184.9,73.6 162,66.9Z" fill="#f0cd6e" stroke="#1b1814" stroke-width="2.4" stroke-linejoin="round"/><path d="M201.5,37.2 231.2,56.3 205,86.5 184.9,73.6Z" fill="#f6e3a3" stroke="#1b1814" stroke-width="2.4" stroke-linejoin="round"/><path d="M231.2,56.3 254.3,83 220.7,104.6 205,86.5Z" fill="#f0cd6e" stroke="#1b1814" stroke-width="2.4" stroke-linejoin="round"/><path d="M254.3,83 269,115.1 230.6,126.3 220.7,104.6Z" fill="#fffdf6" stroke="#1b1814" stroke-width="2.4" stroke-linejoin="round"/><path d="M269,115.1 274,150 234,150 230.6,126.3Z" fill="#ebc35f" stroke="#1b1814" stroke-width="2.4" stroke-linejoin="round"/><path d="M274,150 269,184.9 230.6,173.7 234,150Z" fill="#f6e3a3" stroke="#1b1814" stroke-width="2.4" stroke-linejoin="round"/><path d="M269,184.9 254.3,217 220.7,195.4 230.6,173.7Z" fill="#f2d27a" stroke="#1b1814" stroke-width="2.4" stroke-linejoin="round"/><path d="M254.3,217 231.2,243.7 205,213.5 220.7,195.4Z" fill="#fffdf6" stroke="#1b1814" stroke-width="2.4" stroke-linejoin="round"/><path d="M231.2,243.7 201.5,262.8 184.9,226.4 205,213.5Z" fill="#ebc35f" stroke="#1b1814" stroke-width="2.4" stroke-linejoin="round"/><path d="M201.5,262.8 167.6,272.7 162,233.1 184.9,226.4Z" fill="#f6e3a3" stroke="#1b1814" stroke-width="2.4" stroke-linejoin="round"/><path d="M167.6,272.7 132.4,272.7 138,233.1 162,233.1Z" fill="#f0cd6e" stroke="#1b1814" stroke-width="2.4" stroke-linejoin="round"/><path d="M132.4,272.7 98.5,262.8 115.1,226.4 138,233.1Z" fill="#fbf1cf" stroke="#1b1814" stroke-width="2.4" stroke-linejoin="round"/><path d="M98.5,262.8 68.8,243.7 95,213.5 115.1,226.4Z" fill="#f2d27a" stroke="#1b1814" stroke-width="2.4" stroke-linejoin="round"/><path d="M68.8,243.7 45.7,217 79.3,195.4 95,213.5Z" fill="#f6e3a3" stroke="#1b1814" stroke-width="2.4" stroke-linejoin="round"/><path d="M45.7,217 31,184.9 69.4,173.7 79.3,195.4Z" fill="#ebc35f" stroke="#1b1814" stroke-width="2.4" stroke-linejoin="round"/><path d="M31,184.9 26,150 66,150 69.4,173.7Z" fill="#fff8e4" stroke="#1b1814" stroke-width="2.4" stroke-linejoin="round"/><path d="M26,150 31,115.1 69.4,126.3 66,150Z" fill="#f6e3a3" stroke="#1b1814" stroke-width="2.4" stroke-linejoin="round"/><path d="M31,115.1 45.7,83 79.3,104.6 69.4,126.3Z" fill="#f6e3a3" stroke="#1b1814" stroke-width="2.4" stroke-linejoin="round"/><path d="M45.7,83 68.8,56.3 95,86.5 79.3,104.6Z" fill="#f2d27a" stroke="#1b1814" stroke-width="2.4" stroke-linejoin="round"/><path d="M68.8,56.3 98.5,37.2 115.1,73.6 95,86.5Z" fill="#fffdf6" stroke="#1b1814" stroke-width="2.4" stroke-linejoin="round"/><path d="M98.5,37.2 132.4,27.3 138,66.9 115.1,73.6Z" fill="#ebc35f" stroke="#1b1814" stroke-width="2.4" stroke-linejoin="round"/><path d="M132.4,27.3 167.6,27.3 162,66.9 138,66.9Z" fill="#fffdf6" stroke="#1b1814" stroke-width="2.4" stroke-linejoin="round"/><path d="M150,-30 200.7,-22.7 184.9,31 150,26Z" fill="#f6e3a3" stroke="#1b1814" stroke-width="2.4" stroke-linejoin="round"/><path d="M200.7,-22.7 247.3,-1.4 217,45.7 184.9,31Z" fill="#f6e3a3" stroke="#1b1814" stroke-width="2.4" stroke-linejoin="round"/><path d="M247.3,-1.4 286,32.1 243.7,68.8 217,45.7Z" fill="#ebc35f" stroke="#1b1814" stroke-width="2.4" stroke-linejoin="round"/><path d="M286,32.1 313.7,75.2 262.8,98.5 243.7,68.8Z" fill="#fff8e4" stroke="#1b1814" stroke-width="2.4" stroke-linejoin="round"/><path d="M313.7,75.2 328.2,124.4 272.7,132.4 262.8,98.5Z" fill="#f0cd6e" stroke="#1b1814" stroke-width="2.4" stroke-linejoin="round"/><path d="M328.2,124.4 328.2,175.6 272.7,167.6 272.7,132.4Z" fill="#fbf1cf" stroke="#1b1814" stroke-width="2.4" stroke-linejoin="round"/><path d="M328.2,175.6 313.7,224.8 262.8,201.5 272.7,167.6Z" fill="#ebc35f" stroke="#1b1814" stroke-width="2.4" stroke-linejoin="round"/><path d="M313.7,224.8 286,267.9 243.7,231.2 262.8,201.5Z" fill="#fbf1cf" stroke="#1b1814" stroke-width="2.4" stroke-linejoin="round"/><path d="M286,267.9 247.3,301.4 217,254.3 243.7,231.2Z" fill="#f2d27a" stroke="#1b1814" stroke-width="2.4" stroke-linejoin="round"/><path d="M247.3,301.4 200.7,322.7 184.9,269 217,254.3Z" fill="#fbf1cf" stroke="#1b1814" stroke-width="2.4" stroke-linejoin="round"/><path d="M200.7,322.7 150,330 150,274 184.9,269Z" fill="#ebc35f" stroke="#1b1814" stroke-width="2.4" stroke-linejoin="round"/><path d="M150,330 99.3,322.7 115.1,269 150,274Z" fill="#fffdf6" stroke="#1b1814" stroke-width="2.4" stroke-linejoin="round"/><path d="M99.3,322.7 52.7,301.4 83,254.3 115.1,269Z" fill="#f6e3a3" stroke="#1b1814" stroke-width="2.4" stroke-linejoin="round"/><path d="M52.7,301.4 14,267.9 56.3,231.2 83,254.3Z" fill="#f6e3a3" stroke="#1b1814" stroke-width="2.4" stroke-linejoin="round"/><path d="M14,267.9 -13.7,224.8 37.2,201.5 56.3,231.2Z" fill="#f6e3a3" stroke="#1b1814" stroke-width="2.4" stroke-linejoin="round"/><path d="M-13.7,224.8 -28.2,175.6 27.3,167.6 37.2,201.5Z" fill="#fff8e4" stroke="#1b1814" stroke-width="2.4" stroke-linejoin="round"/><path d="M-28.2,175.6 -28.2,124.4 27.3,132.4 27.3,167.6Z" fill="#f0cd6e" stroke="#1b1814" stroke-width="2.4" stroke-linejoin="round"/><path d="M-28.2,124.4 -13.7,75.2 37.2,98.5 27.3,132.4Z" fill="#f6e3a3" stroke="#1b1814" stroke-width="2.4" stroke-linejoin="round"/><path d="M-13.7,75.2 14,32.1 56.3,68.8 37.2,98.5Z" fill="#ebc35f" stroke="#1b1814" stroke-width="2.4" stroke-linejoin="round"/><path d="M14,32.1 52.7,-1.4 83,45.7 56.3,68.8Z" fill="#fff8e4" stroke="#1b1814" stroke-width="2.4" stroke-linejoin="round"/><path d="M52.7,-1.4 99.3,-22.7 115.1,31 83,45.7Z" fill="#f2d27a" stroke="#1b1814" stroke-width="2.4" stroke-linejoin="round"/><path d="M99.3,-22.7 150,-30 150,26 115.1,31Z" fill="#fbf1cf" stroke="#1b1814" stroke-width="2.4" stroke-linejoin="round"/><path d="M187,-107.4 258,-86.5 224.8,-13.7 175.6,-28.2Z" fill="#f0cd6e" stroke="#1b1814" stroke-width="2.4" stroke-linejoin="round"/><path d="M258,-86.5 320.3,-46.5 267.9,14 224.8,-13.7Z" fill="#fff8e4" stroke="#1b1814" stroke-width="2.4" stroke-linejoin="round"/><path d="M320.3,-46.5 368.7,9.4 301.4,52.7 267.9,14Z" fill="#f2d27a" stroke="#1b1814" stroke-width="2.4" stroke-linejoin="round"/><path d="M368.7,9.4 399.5,76.7 322.7,99.3 301.4,52.7Z" fill="#fff8e4" stroke="#1b1814" stroke-width="2.4" stroke-linejoin="round"/><path d="M399.5,76.7 410,150 330,150 322.7,99.3Z" fill="#ebc35f" stroke="#1b1814" stroke-width="2.4" stroke-linejoin="round"/><path d="M410,150 399.5,223.3 322.7,200.7 330,150Z" fill="#fffdf6" stroke="#1b1814" stroke-width="2.4" stroke-linejoin="round"/><path d="M399.5,223.3 368.7,290.6 301.4,247.3 322.7,200.7Z" fill="#f0cd6e" stroke="#1b1814" stroke-width="2.4" stroke-linejoin="round"/><path d="M368.7,290.6 320.3,346.5 267.9,286 301.4,247.3Z" fill="#fff8e4" stroke="#1b1814" stroke-width="2.4" stroke-linejoin="round"/><path d="M320.3,346.5 258,386.5 224.8,313.7 267.9,286Z" fill="#f0cd6e" stroke="#1b1814" stroke-width="2.4" stroke-linejoin="round"/><path d="M258,386.5 187,407.4 175.6,328.2 224.8,313.7Z" fill="#fffdf6" stroke="#1b1814" stroke-width="2.4" stroke-linejoin="round"/><path d="M187,407.4 113,407.4 124.4,328.2 175.6,328.2Z" fill="#f0cd6e" stroke="#1b1814" stroke-width="2.4" stroke-linejoin="round"/><path d="M113,407.4 42,386.5 75.2,313.7 124.4,328.2Z" fill="#fff8e4" stroke="#1b1814" stroke-width="2.4" stroke-linejoin="round"/><path d="M42,386.5 -20.3,346.5 32.1,286 75.2,313.7Z" fill="#f6e3a3" stroke="#1b1814" stroke-width="2.4" stroke-linejoin="round"/><path d="M-20.3,346.5 -68.7,290.6 -1.4,247.3 32.1,286Z" fill="#fff8e4" stroke="#1b1814" stroke-width="2.4" stroke-linejoin="round"/><path d="M-68.7,290.6 -99.5,223.3 -22.7,200.7 -1.4,247.3Z" fill="#f2d27a" stroke="#1b1814" stroke-width="2.4" stroke-linejoin="round"/><path d="M-99.5,223.3 -110,150 -30,150 -22.7,200.7Z" fill="#fbf1cf" stroke="#1b1814" stroke-width="2.4" stroke-linejoin="round"/><path d="M-110,150 -99.5,76.7 -22.7,99.3 -30,150Z" fill="#f6e3a3" stroke="#1b1814" stroke-width="2.4" stroke-linejoin="round"/><path d="M-99.5,76.7 -68.7,9.4 -1.4,52.7 -22.7,99.3Z" fill="#fff8e4" stroke="#1b1814" stroke-width="2.4" stroke-linejoin="round"/><path d="M-68.7,9.4 -20.3,-46.5 32.1,14 -1.4,52.7Z" fill="#f0cd6e" stroke="#1b1814" stroke-width="2.4" stroke-linejoin="round"/><path d="M-20.3,-46.5 42,-86.5 75.2,-13.7 32.1,14Z" fill="#fbf1cf" stroke="#1b1814" stroke-width="2.4" stroke-linejoin="round"/><path d="M42,-86.5 113,-107.4 124.4,-28.2 75.2,-13.7Z" fill="#f2d27a" stroke="#1b1814" stroke-width="2.4" stroke-linejoin="round"/><path d="M113,-107.4 187,-107.4 175.6,-28.2 124.4,-28.2Z" fill="#fffdf6" stroke="#1b1814" stroke-width="2.4" stroke-linejoin="round"/><path d="M150,-230 257.1,-214.6 223.3,-99.5 150,-110Z" fill="#f2d27a" stroke="#1b1814" stroke-width="2.4" stroke-linejoin="round"/><path d="M257.1,-214.6 355.4,-169.7 290.6,-68.7 223.3,-99.5Z" fill="#f6e3a3" stroke="#1b1814" stroke-width="2.4" stroke-linejoin="round"/><path d="M355.4,-169.7 437.2,-98.8 346.5,-20.3 290.6,-68.7Z" fill="#f6e3a3" stroke="#1b1814" stroke-width="2.4" stroke-linejoin="round"/><path d="M437.2,-98.8 495.7,-7.9 386.5,42 346.5,-20.3Z" fill="#fbf1cf" stroke="#1b1814" stroke-width="2.4" stroke-linejoin="round"/><path d="M495.7,-7.9 526.1,95.9 407.4,113 386.5,42Z" fill="#f6e3a3" stroke="#1b1814" stroke-width="2.4" stroke-linejoin="round"/><path d="M526.1,95.9 526.1,204.1 407.4,187 407.4,113Z" fill="#fff8e4" stroke="#1b1814" stroke-width="2.4" stroke-linejoin="round"/><path d="M526.1,204.1 495.7,307.9 386.5,258 407.4,187Z" fill="#f6e3a3" stroke="#1b1814" stroke-width="2.4" stroke-linejoin="round"/><path d="M495.7,307.9 437.2,398.8 346.5,320.3 386.5,258Z" fill="#f6e3a3" stroke="#1b1814" stroke-width="2.4" stroke-linejoin="round"/><path d="M437.2,398.8 355.4,469.7 290.6,368.7 346.5,320.3Z" fill="#f0cd6e" stroke="#1b1814" stroke-width="2.4" stroke-linejoin="round"/><path d="M355.4,469.7 257.1,514.6 223.3,399.5 290.6,368.7Z" fill="#fff8e4" stroke="#1b1814" stroke-width="2.4" stroke-linejoin="round"/><path d="M257.1,514.6 150,530 150,410 223.3,399.5Z" fill="#f0cd6e" stroke="#1b1814" stroke-width="2.4" stroke-linejoin="round"/><path d="M150,530 42.9,514.6 76.7,399.5 150,410Z" fill="#f6e3a3" stroke="#1b1814" stroke-width="2.4" stroke-linejoin="round"/><path d="M42.9,514.6 -55.4,469.7 9.4,368.7 76.7,399.5Z" fill="#f0cd6e" stroke="#1b1814" stroke-width="2.4" stroke-linejoin="round"/><path d="M-55.4,469.7 -137.2,398.8 -46.5,320.3 9.4,368.7Z" fill="#fff8e4" stroke="#1b1814" stroke-width="2.4" stroke-linejoin="round"/><path d="M-137.2,398.8 -195.7,307.9 -86.5,258 -46.5,320.3Z" fill="#f0cd6e" stroke="#1b1814" stroke-width="2.4" stroke-linejoin="round"/><path d="M-195.7,307.9 -226.1,204.1 -107.4,187 -86.5,258Z" fill="#fbf1cf" stroke="#1b1814" stroke-width="2.4" stroke-linejoin="round"/><path d="M-226.1,204.1 -226.1,95.9 -107.4,113 -107.4,187Z" fill="#f0cd6e" stroke="#1b1814" stroke-width="2.4" stroke-linejoin="round"/><path d="M-226.1,95.9 -195.7,-7.9 -86.5,42 -107.4,113Z" fill="#fff8e4" stroke="#1b1814" stroke-width="2.4" stroke-linejoin="round"/><path d="M-195.7,-7.9 -137.2,-98.8 -46.5,-20.3 -86.5,42Z" fill="#f6e3a3" stroke="#1b1814" stroke-width="2.4" stroke-linejoin="round"/><path d="M-137.2,-98.8 -55.4,-169.7 9.4,-68.7 -46.5,-20.3Z" fill="#fff8e4" stroke="#1b1814" stroke-width="2.4" stroke-linejoin="round"/><path d="M-55.4,-169.7 42.9,-214.6 76.7,-99.5 9.4,-68.7Z" fill="#f6e3a3" stroke="#1b1814" stroke-width="2.4" stroke-linejoin="round"/><path d="M42.9,-214.6 150,-230 150,-110 76.7,-99.5Z" fill="#f6e3a3" stroke="#1b1814" stroke-width="2.4" stroke-linejoin="round"/><path d="M218.3,-325.1 349.4,-286.6 307.9,-195.7 204.1,-226.1Z" fill="#ebc35f" stroke="#1b1814" stroke-width="2.4" stroke-linejoin="round"/><path d="M349.4,-286.6 464.3,-212.8 398.8,-137.2 307.9,-195.7Z" fill="#fff8e4" stroke="#1b1814" stroke-width="2.4" stroke-linejoin="round"/><path d="M464.3,-212.8 553.8,-109.5 469.7,-55.4 398.8,-137.2Z" fill="#f6e3a3" stroke="#1b1814" stroke-width="2.4" stroke-linejoin="round"/><path d="M553.8,-109.5 610.6,14.8 514.6,42.9 469.7,-55.4Z" fill="#f6e3a3" stroke="#1b1814" stroke-width="2.4" stroke-linejoin="round"/><path d="M610.6,14.8 630,150 530,150 514.6,42.9Z" fill="#f0cd6e" stroke="#1b1814" stroke-width="2.4" stroke-linejoin="round"/><path d="M630,150 610.6,285.2 514.6,257.1 530,150Z" fill="#fff8e4" stroke="#1b1814" stroke-width="2.4" stroke-linejoin="round"/><path d="M610.6,285.2 553.8,409.5 469.7,355.4 514.6,257.1Z" fill="#ebc35f" stroke="#1b1814" stroke-width="2.4" stroke-linejoin="round"/><path d="M553.8,409.5 464.3,512.8 398.8,437.2 469.7,355.4Z" fill="#f6e3a3" stroke="#1b1814" stroke-width="2.4" stroke-linejoin="round"/><path d="M464.3,512.8 349.4,586.6 307.9,495.7 398.8,437.2Z" fill="#f2d27a" stroke="#1b1814" stroke-width="2.4" stroke-linejoin="round"/><path d="M349.4,586.6 218.3,625.1 204.1,526.1 307.9,495.7Z" fill="#fff8e4" stroke="#1b1814" stroke-width="2.4" stroke-linejoin="round"/><path d="M218.3,625.1 81.7,625.1 95.9,526.1 204.1,526.1Z" fill="#f2d27a" stroke="#1b1814" stroke-width="2.4" stroke-linejoin="round"/><path d="M81.7,625.1 -49.4,586.6 -7.9,495.7 95.9,526.1Z" fill="#fbf1cf" stroke="#1b1814" stroke-width="2.4" stroke-linejoin="round"/><path d="M-49.4,586.6 -164.3,512.8 -98.8,437.2 -7.9,495.7Z" fill="#f2d27a" stroke="#1b1814" stroke-width="2.4" stroke-linejoin="round"/><path d="M-164.3,512.8 -253.8,409.5 -169.7,355.4 -98.8,437.2Z" fill="#fffdf6" stroke="#1b1814" stroke-width="2.4" stroke-linejoin="round"/><path d="M-253.8,409.5 -310.6,285.2 -214.6,257.1 -169.7,355.4Z" fill="#f6e3a3" stroke="#1b1814" stroke-width="2.4" stroke-linejoin="round"/><path d="M-310.6,285.2 -330,150 -230,150 -214.6,257.1Z" fill="#f6e3a3" stroke="#1b1814" stroke-width="2.4" stroke-linejoin="round"/><path d="M-330,150 -310.6,14.8 -214.6,42.9 -230,150Z" fill="#f0cd6e" stroke="#1b1814" stroke-width="2.4" stroke-linejoin="round"/><path d="M-310.6,14.8 -253.8,-109.5 -169.7,-55.4 -214.6,42.9Z" fill="#fffdf6" stroke="#1b1814" stroke-width="2.4" stroke-linejoin="round"/><path d="M-253.8,-109.5 -164.3,-212.8 -98.8,-137.2 -169.7,-55.4Z" fill="#ebc35f" stroke="#1b1814" stroke-width="2.4" stroke-linejoin="round"/><path d="M-164.3,-212.8 -49.4,-286.6 -7.9,-195.7 -98.8,-137.2Z" fill="#fbf1cf" stroke="#1b1814" stroke-width="2.4" stroke-linejoin="round"/><path d="M-49.4,-286.6 81.7,-325.1 95.9,-226.1 -7.9,-195.7Z" fill="#f6e3a3" stroke="#1b1814" stroke-width="2.4" stroke-linejoin="round"/><path d="M81.7,-325.1 218.3,-325.1 204.1,-226.1 95.9,-226.1Z" fill="#fffdf6" stroke="#1b1814" stroke-width="2.4" stroke-linejoin="round"/><rect width="300" height="390" fill="url(#acg)"/><path d="M150,66 182.1,72.4 176.8,85.3 150,80Z" fill="#f7de8c" stroke="#1b1814" stroke-width="2.2" stroke-linejoin="round"/><path d="M182.1,72.4 209.4,90.6 199.5,100.5 176.8,85.3Z" fill="#e3b447" stroke="#1b1814" stroke-width="2.2" stroke-linejoin="round"/><path d="M209.4,90.6 227.6,117.9 214.7,123.2 199.5,100.5Z" fill="#f7de8c" stroke="#1b1814" stroke-width="2.2" stroke-linejoin="round"/><path d="M227.6,117.9 234,150 220,150 214.7,123.2Z" fill="#e3b447" stroke="#1b1814" stroke-width="2.2" stroke-linejoin="round"/><path d="M234,150 227.6,182.1 214.7,176.8 220,150Z" fill="#f7de8c" stroke="#1b1814" stroke-width="2.2" stroke-linejoin="round"/><path d="M227.6,182.1 209.4,209.4 199.5,199.5 214.7,176.8Z" fill="#e3b447" stroke="#1b1814" stroke-width="2.2" stroke-linejoin="round"/><path d="M209.4,209.4 182.1,227.6 176.8,214.7 199.5,199.5Z" fill="#f7de8c" stroke="#1b1814" stroke-width="2.2" stroke-linejoin="round"/><path d="M182.1,227.6 150,234 150,220 176.8,214.7Z" fill="#e3b447" stroke="#1b1814" stroke-width="2.2" stroke-linejoin="round"/><path d="M150,234 117.9,227.6 123.2,214.7 150,220Z" fill="#f7de8c" stroke="#1b1814" stroke-width="2.2" stroke-linejoin="round"/><path d="M117.9,227.6 90.6,209.4 100.5,199.5 123.2,214.7Z" fill="#e3b447" stroke="#1b1814" stroke-width="2.2" stroke-linejoin="round"/><path d="M90.6,209.4 72.4,182.1 85.3,176.8 100.5,199.5Z" fill="#f7de8c" stroke="#1b1814" stroke-width="2.2" stroke-linejoin="round"/><path d="M72.4,182.1 66,150 80,150 85.3,176.8Z" fill="#e3b447" stroke="#1b1814" stroke-width="2.2" stroke-linejoin="round"/><path d="M66,150 72.4,117.9 85.3,123.2 80,150Z" fill="#f7de8c" stroke="#1b1814" stroke-width="2.2" stroke-linejoin="round"/><path d="M72.4,117.9 90.6,90.6 100.5,100.5 85.3,123.2Z" fill="#e3b447" stroke="#1b1814" stroke-width="2.2" stroke-linejoin="round"/><path d="M90.6,90.6 117.9,72.4 123.2,85.3 100.5,100.5Z" fill="#f7de8c" stroke="#1b1814" stroke-width="2.2" stroke-linejoin="round"/><path d="M117.9,72.4 150,66 150,80 123.2,85.3Z" fill="#e3b447" stroke="#1b1814" stroke-width="2.2" stroke-linejoin="round"/><circle cx="150" cy="150" r="84" fill="none" stroke="#1b1814" stroke-width="6"/><path d="M9,356.8 28.6,352.2 27.5,372.4 13.1,374.8Z" fill="#6f695f" stroke="#1b1814" stroke-width="2.2" stroke-linejoin="round"/><path d="M13.1,374.8 27.5,372.4 28.6,392 9,392Z" fill="#5f5a52" stroke="#1b1814" stroke-width="2.2" stroke-linejoin="round"/><path d="M28.6,352.2 54.2,340.3 53.1,371.8 27.5,372.4Z" fill="#4a4640" stroke="#1b1814" stroke-width="2.2" stroke-linejoin="round"/><path d="M27.5,372.4 53.1,371.8 54.2,392 28.6,392Z" fill="#3a3732" stroke="#1b1814" stroke-width="2.2" stroke-linejoin="round"/><path d="M54.2,340.3 79.8,345.5 73.7,377.8 53.1,371.8Z" fill="#6f695f" stroke="#1b1814" stroke-width="2.2" stroke-linejoin="round"/><path d="M53.1,371.8 73.7,377.8 79.8,392 54.2,392Z" fill="#4a4640" stroke="#1b1814" stroke-width="2.2" stroke-linejoin="round"/><path d="M79.8,345.5 107.7,342.9 112.5,379.8 73.7,377.8Z" fill="#5f5a52" stroke="#1b1814" stroke-width="2.2" stroke-linejoin="round"/><path d="M73.7,377.8 112.5,379.8 107.7,392 79.8,392Z" fill="#4a4640" stroke="#1b1814" stroke-width="2.2" stroke-linejoin="round"/><path d="M107.7,342.9 126.3,357.4 129.3,374.7 112.5,379.8Z" fill="#6f695f" stroke="#1b1814" stroke-width="2.2" stroke-linejoin="round"/><path d="M112.5,379.8 129.3,374.7 126.3,392 107.7,392Z" fill="#3a3732" stroke="#1b1814" stroke-width="2.2" stroke-linejoin="round"/><path d="M126.3,357.4 145.5,356.2 149.5,369.6 129.3,374.7Z" fill="#6f695f" stroke="#1b1814" stroke-width="2.2" stroke-linejoin="round"/><path d="M129.3,374.7 149.5,369.6 145.5,392 126.3,392Z" fill="#3a3732" stroke="#1b1814" stroke-width="2.2" stroke-linejoin="round"/><path d="M145.5,356.2 163.6,356.1 166.4,373.3 149.5,369.6Z" fill="#3a3732" stroke="#1b1814" stroke-width="2.2" stroke-linejoin="round"/><path d="M149.5,369.6 166.4,373.3 163.6,392 145.5,392Z" fill="#4a4640" stroke="#1b1814" stroke-width="2.2" stroke-linejoin="round"/><path d="M163.6,356.1 182.7,356.5 177.6,370.4 166.4,373.3Z" fill="#6f695f" stroke="#1b1814" stroke-width="2.2" stroke-linejoin="round"/><path d="M166.4,373.3 177.6,370.4 182.7,392 163.6,392Z" fill="#3a3732" stroke="#1b1814" stroke-width="2.2" stroke-linejoin="round"/><path d="M182.7,356.5 209,354.9 209.4,371 177.6,370.4Z" fill="#3a3732" stroke="#1b1814" stroke-width="2.2" stroke-linejoin="round"/><path d="M177.6,370.4 209.4,371 209,392 182.7,392Z" fill="#5f5a52" stroke="#1b1814" stroke-width="2.2" stroke-linejoin="round"/><path d="M209,354.9 226.8,359 226.2,375.3 209.4,371Z" fill="#5f5a52" stroke="#1b1814" stroke-width="2.2" stroke-linejoin="round"/><path d="M209.4,371 226.2,375.3 226.8,392 209,392Z" fill="#3a3732" stroke="#1b1814" stroke-width="2.2" stroke-linejoin="round"/><path d="M226.8,359 250.3,355.9 248.6,369.6 226.2,375.3Z" fill="#3a3732" stroke="#1b1814" stroke-width="2.2" stroke-linejoin="round"/><path d="M226.2,375.3 248.6,369.6 250.3,392 226.8,392Z" fill="#3a3732" stroke="#1b1814" stroke-width="2.2" stroke-linejoin="round"/><path d="M250.3,355.9 269.3,345.1 269.1,370.8 248.6,369.6Z" fill="#5f5a52" stroke="#1b1814" stroke-width="2.2" stroke-linejoin="round"/><path d="M248.6,369.6 269.1,370.8 269.3,392 250.3,392Z" fill="#3a3732" stroke="#1b1814" stroke-width="2.2" stroke-linejoin="round"/><path d="M269.3,345.1 289.4,357 285.2,370.3 269.1,370.8Z" fill="#5f5a52" stroke="#1b1814" stroke-width="2.2" stroke-linejoin="round"/><path d="M269.1,370.8 285.2,370.3 289.4,392 269.3,392Z" fill="#3a3732" stroke="#1b1814" stroke-width="2.2" stroke-linejoin="round"/><path d="M289.4,357 311.4,349.7 309.3,368.9 285.2,370.3Z" fill="#6f695f" stroke="#1b1814" stroke-width="2.2" stroke-linejoin="round"/><path d="M285.2,370.3 309.3,368.9 311.4,392 289.4,392Z" fill="#4a4640" stroke="#1b1814" stroke-width="2.2" stroke-linejoin="round"/><path d="M249.6,283.9 239.2,285.7 241.9,277.1Z" fill="#e8e0cc" stroke="#1b1814" stroke-width="1.4" stroke-linejoin="round"/><path d="M211.3,303.4 205.1,299 210.9,296Z" fill="#e8e0cc" stroke="#1b1814" stroke-width="1.4" stroke-linejoin="round"/><path d="M161.1,333.8 165.4,328.7 167.6,334Z" fill="#e8e0cc" stroke="#1b1814" stroke-width="1.4" stroke-linejoin="round"/><path d="M161.7,312.7 165.7,308.5 167.2,313.2Z" fill="#c9c1b0" stroke="#1b1814" stroke-width="1.4" stroke-linejoin="round"/><path d="M186.4,313.8 186.2,307.4 191.1,309.7Z" fill="#c9c1b0" stroke="#1b1814" stroke-width="1.4" stroke-linejoin="round"/><path d="M103.2,298.1 93.3,297.5 97.7,290.3Z" fill="#c9c1b0" stroke="#1b1814" stroke-width="1.4" stroke-linejoin="round"/><path d="M154.4,332.2 154.5,326.5 158.8,328.8Z" fill="#9a9387" stroke="#1b1814" stroke-width="1.4" stroke-linejoin="round"/><path d="M144.1,337.1 151.8,332 152.7,339.9Z" fill="#e8e0cc" stroke="#1b1814" stroke-width="1.4" stroke-linejoin="round"/><path d="M72.9,321.9 77.8,328.5 70.9,329.7Z" fill="#9a9387" stroke="#1b1814" stroke-width="1.4" stroke-linejoin="round"/><path d="M215.3,290.3 213.2,300.6 206.2,294.9Z" fill="#c9c1b0" stroke="#1b1814" stroke-width="1.4" stroke-linejoin="round"/><path d="M125.4,290.4 136.3,292.1 130.7,299.8Z" fill="#c9c1b0" stroke="#1b1814" stroke-width="1.4" stroke-linejoin="round"/><path d="M70.5,302.2 73.3,297.2 76,301.3Z" fill="#9a9387" stroke="#1b1814" stroke-width="1.4" stroke-linejoin="round"/><path d="M34,277.2 44.5,283.4 35.5,288.9Z" fill="#c9c1b0" stroke="#1b1814" stroke-width="1.4" stroke-linejoin="round"/><path d="M66.9,312.4 67.9,302.9 74.7,307.4Z" fill="#c9c1b0" stroke="#1b1814" stroke-width="1.4" stroke-linejoin="round"/><path d="M132,146 150,146 150,196 132,196Z" fill="#ffffff" stroke="#1b1814" stroke-width="2.4" stroke-linejoin="round"/><path d="M150,146 168,146 168,196 150,196Z" fill="#fbe9ae" stroke="#1b1814" stroke-width="2.4" stroke-linejoin="round"/><path d="M132,196 150,196 150,238 132,238Z" fill="#ffffff" stroke="#1b1814" stroke-width="2.4" stroke-linejoin="round"/><path d="M150,196 168,196 168,238 150,238Z" fill="#fbe9ae" stroke="#1b1814" stroke-width="2.4" stroke-linejoin="round"/><path d="M132,238 150,238 150,276 132,276Z" fill="#ffffff" stroke="#1b1814" stroke-width="2.4" stroke-linejoin="round"/><path d="M150,238 168,238 168,276 150,276Z" fill="#fbe9ae" stroke="#1b1814" stroke-width="2.4" stroke-linejoin="round"/><path d="M132,276 150,276 150,312 135.6,312Z" fill="#ffffff" stroke="#1b1814" stroke-width="2.4" stroke-linejoin="round"/><path d="M150,276 168,276 164.4,312 150,312Z" fill="#fbe9ae" stroke="#1b1814" stroke-width="2.4" stroke-linejoin="round"/><path d="M135.6,312 150,312 150,360Z" fill="#ffffff" stroke="#1b1814" stroke-width="2.4" stroke-linejoin="round"/><path d="M150,312 164.4,312 150,360Z" fill="#fbe9ae" stroke="#1b1814" stroke-width="2.4" stroke-linejoin="round"/><path d="M150 146 V360" stroke="#1b1814" stroke-width="3.5"/><path d="M132 146 L132 300 L150 360 L168 300 L168 146" fill="none" stroke="#1b1814" stroke-width="5" stroke-linejoin="round"/><path d="M72,128 96,136 204,136 228,128 222,150 204,146 96,146 78,150Z" fill="url(#ach)" stroke="#1b1814" stroke-width="3" stroke-linejoin="round"/><path d="M142,86 158,86 158,100 142,100Z" fill="#e6b94a" stroke="#1b1814" stroke-width="2.2" stroke-linejoin="round"/><path d="M142,100 158,100 158,114 142,114Z" fill="#f5d772" stroke="#1b1814" stroke-width="2.2" stroke-linejoin="round"/><path d="M142,114 158,114 158,128 142,128Z" fill="#e6b94a" stroke="#1b1814" stroke-width="2.2" stroke-linejoin="round"/><circle cx="150" cy="74" r="13" fill="url(#ach)" stroke="#1b1814" stroke-width="3"/><circle cx="150" cy="141" r="6" fill="#ffffff" stroke="#1b1814" stroke-width="2"/></g><rect x="9" y="9" width="282" height="372" rx="12" fill="none" stroke="#1b1814" stroke-width="5"/><rect x="4" y="4" width="292" height="382" rx="15" fill="none" stroke="#c9a54a" stroke-width="1.6"/><rect x="12" y="12" width="64" height="112" rx="11" fill="#fffaf0" stroke="#1b1814" stroke-width="4.5"/><path d="M4 53 L22 3 L40 53 M10.5 37 L33.5 37" transform="translate(22 22)" fill="none" stroke="#111018" stroke-width="9.5" stroke-linejoin="round"/><path d="M20 1.5 A8.6 8.6 0 0 1 26.6 15.6 A8.6 8.6 0 1 1 22.6 29 C23 33 24.5 36.5 27.5 39 L12.5 39 C15.5 36.5 17 33 17.4 29 A8.6 8.6 0 1 1 13.4 15.6 A8.6 8.6 0 0 1 20 1.5Z" transform="translate(26 83) scale(.9)" fill="#111018"/></svg>