<svg xmlns="http://www.w3.org/2000/svg" viewBox="0 0 300 390" width="300" height="390"><defs><clipPath id="Aheac"><rect x="9" y="9" width="282" height="372" rx="12"/></clipPath><radialGradient id="ahg" cx="150" cy="250" r="220" gradientUnits="userSpaceOnUse"><stop offset="0" stop-color="#ffffff" stop-opacity="0.8"/><stop offset="1" stop-color="#ffffff" stop-opacity="0"/></radialGradient><linearGradient id="ahb" x1="0" y1="0" x2="1" y2="0"><stop offset="0" stop-color="#fbeab0"/><stop offset=".5" stop-color="#ffffff"/><stop offset="1" stop-color="#fbeab0"/></linearGradient></defs><rect width="300" height="390" rx="18" fill="#1b1814"/><g clip-path="url(#Aheac)"><rect x="9" y="9" width="282" height="372" fill="#fffbea"/><path d="M150,120 196.6,126.1 182.1,180.2 150,176Z" fill="#fbf1cf" stroke="#1b1814" stroke-width="2.4" stroke-linejoin="round"/><path d="M196.6,126.1 240,144.1 212,192.6 182.1,180.2Z" fill="#fbf1cf" stroke="#1b1814" stroke-width="2.4" stroke-linejoin="round"/><path d="M240,144.1 277.3,172.7 237.7,212.3 212,192.6Z" fill="#f6e3a3" stroke="#1b1814" stroke-width="2.4" stroke-linejoin="round"/><path d="M277.3,172.7 305.9,210 257.4,238 237.7,212.3Z" fill="#fff8e4" stroke="#1b1814" stroke-width="2.4" stroke-linejoin="round"/><path d="M305.9,210 323.9,253.4 269.8,267.9 257.4,238Z" fill="#fffdf6" stroke="#1b1814" stroke-width="2.4" stroke-linejoin="round"/><path d="M323.9,253.4 330,300 274,300 269.8,267.9Z" fill="#fffdf6" stroke="#1b1814" stroke-width="2.4" stroke-linejoin="round"/><path d="M330,300 323.9,346.6 269.8,332.1 274,300Z" fill="#fff8e4" stroke="#1b1814" stroke-width="2.4" stroke-linejoin="round"/><path d="M323.9,346.6 305.9,390 257.4,362 269.8,332.1Z" fill="#f6e3a3" stroke="#1b1814" stroke-width="2.4" stroke-linejoin="round"/><path d="M305.9,390 277.3,427.3 237.7,387.7 257.4,362Z" fill="#fbf1cf" stroke="#1b1814" stroke-width="2.4" stroke-linejoin="round"/><path d="M277.3,427.3 240,455.9 212,407.4 237.7,387.7Z" fill="#fbf1cf" stroke="#1b1814" stroke-width="2.4" stroke-linejoin="round"/><path d="M240,455.9 196.6,473.9 182.1,419.8 212,407.4Z" fill="#fff8e4" stroke="#1b1814" stroke-width="2.4" stroke-linejoin="round"/><path d="M196.6,473.9 150,480 150,424 182.1,419.8Z" fill="#fff8e4" stroke="#1b1814" stroke-width="2.4" stroke-linejoin="round"/><path d="M150,480 103.4,473.9 117.9,419.8 150,424Z" fill="#fff8e4" stroke="#1b1814" stroke-width="2.4" stroke-linejoin="round"/><path d="M103.4,473.9 60,455.9 88,407.4 117.9,419.8Z" fill="#fbf1cf" stroke="#1b1814" stroke-width="2.4" stroke-linejoin="round"/><path d="M60,455.9 22.7,427.3 62.3,387.7 88,407.4Z" fill="#fbf1cf" stroke="#1b1814" stroke-width="2.4" stroke-linejoin="round"/><path d="M22.7,427.3 -5.9,390 42.6,362 62.3,387.7Z" fill="#fbf1cf" stroke="#1b1814" stroke-width="2.4" stroke-linejoin="round"/><path d="M-5.9,390 -23.9,346.6 30.2,332.1 42.6,362Z" fill="#fff8e4" stroke="#1b1814" stroke-width="2.4" stroke-linejoin="round"/><path d="M-23.9,346.6 -30,300 26,300 30.2,332.1Z" fill="#fffdf6" stroke="#1b1814" stroke-width="2.4" stroke-linejoin="round"/><path d="M-30,300 -23.9,253.4 30.2,267.9 26,300Z" fill="#fffdf6" stroke="#1b1814" stroke-width="2.4" stroke-linejoin="round"/><path d="M-23.9,253.4 -5.9,210 42.6,238 30.2,267.9Z" fill="#fbf1cf" stroke="#1b1814" stroke-width="2.4" stroke-linejoin="round"/><path d="M-5.9,210 22.7,172.7 62.3,212.3 42.6,238Z" fill="#fffdf6" stroke="#1b1814" stroke-width="2.4" stroke-linejoin="round"/><path d="M22.7,172.7 60,144.1 88,192.6 62.3,212.3Z" fill="#f6e3a3" stroke="#1b1814" stroke-width="2.4" stroke-linejoin="round"/><path d="M60,144.1 103.4,126.1 117.9,180.2 88,192.6Z" fill="#fffdf6" stroke="#1b1814" stroke-width="2.4" stroke-linejoin="round"/><path d="M103.4,126.1 150,120 150,176 117.9,180.2Z" fill="#f6e3a3" stroke="#1b1814" stroke-width="2.4" stroke-linejoin="round"/><path d="M183.9,42.2 249.5,59.8 218.9,133.7 173.5,121.5Z" fill="#f0cd6e" stroke="#1b1814" stroke-width="2.4" stroke-linejoin="round"/><path d="M249.5,59.8 308.3,93.7 259.6,157.2 218.9,133.7Z" fill="#fff8e4" stroke="#1b1814" stroke-width="2.4" stroke-linejoin="round"/><path d="M308.3,93.7 356.3,141.7 292.8,190.4 259.6,157.2Z" fill="#f0cd6e" stroke="#1b1814" stroke-width="2.4" stroke-linejoin="round"/><path d="M356.3,141.7 390.2,200.5 316.3,231.1 292.8,190.4Z" fill="#fff8e4" stroke="#1b1814" stroke-width="2.4" stroke-linejoin="round"/><path d="M390.2,200.5 407.8,266.1 328.5,276.5 316.3,231.1Z" fill="#f0cd6e" stroke="#1b1814" stroke-width="2.4" stroke-linejoin="round"/><path d="M407.8,266.1 407.8,333.9 328.5,323.5 328.5,276.5Z" fill="#fbf1cf" stroke="#1b1814" stroke-width="2.4" stroke-linejoin="round"/><path d="M407.8,333.9 390.2,399.5 316.3,368.9 328.5,323.5Z" fill="#f6e3a3" stroke="#1b1814" stroke-width="2.4" stroke-linejoin="round"/><path d="M390.2,399.5 356.3,458.3 292.8,409.6 316.3,368.9Z" fill="#fffdf6" stroke="#1b1814" stroke-width="2.4" stroke-linejoin="round"/><path d="M356.3,458.3 308.3,506.3 259.6,442.8 292.8,409.6Z" fill="#f2d27a" stroke="#1b1814" stroke-width="2.4" stroke-linejoin="round"/><path d="M308.3,506.3 249.5,540.2 218.9,466.3 259.6,442.8Z" fill="#fbf1cf" stroke="#1b1814" stroke-width="2.4" stroke-linejoin="round"/><path d="M249.5,540.2 183.9,557.8 173.5,478.5 218.9,466.3Z" fill="#f0cd6e" stroke="#1b1814" stroke-width="2.4" stroke-linejoin="round"/><path d="M183.9,557.8 116.1,557.8 126.5,478.5 173.5,478.5Z" fill="#fbf1cf" stroke="#1b1814" stroke-width="2.4" stroke-linejoin="round"/><path d="M116.1,557.8 50.5,540.2 81.1,466.3 126.5,478.5Z" fill="#f6e3a3" stroke="#1b1814" stroke-width="2.4" stroke-linejoin="round"/><path d="M50.5,540.2 -8.3,506.3 40.4,442.8 81.1,466.3Z" fill="#fff8e4" stroke="#1b1814" stroke-width="2.4" stroke-linejoin="round"/><path d="M-8.3,506.3 -56.3,458.3 7.2,409.6 40.4,442.8Z" fill="#f6e3a3" stroke="#1b1814" stroke-width="2.4" stroke-linejoin="round"/><path d="M-56.3,458.3 -90.2,399.5 -16.3,368.9 7.2,409.6Z" fill="#fff8e4" stroke="#1b1814" stroke-width="2.4" stroke-linejoin="round"/><path d="M-90.2,399.5 -107.8,333.9 -28.5,323.5 -16.3,368.9Z" fill="#f0cd6e" stroke="#1b1814" stroke-width="2.4" stroke-linejoin="round"/><path d="M-107.8,333.9 -107.8,266.1 -28.5,276.5 -28.5,323.5Z" fill="#f6e3a3" stroke="#1b1814" stroke-width="2.4" stroke-linejoin="round"/><path d="M-107.8,266.1 -90.2,200.5 -16.3,231.1 -28.5,276.5Z" fill="#f0cd6e" stroke="#1b1814" stroke-width="2.4" stroke-linejoin="round"/><path d="M-90.2,200.5 -56.3,141.7 7.2,190.4 -16.3,231.1Z" fill="#fbf1cf" stroke="#1b1814" stroke-width="2.4" stroke-linejoin="round"/><path d="M-56.3,141.7 -8.3,93.7 40.4,157.2 7.2,190.4Z" fill="#f6e3a3" stroke="#1b1814" stroke-width="2.4" stroke-linejoin="round"/><path d="M-8.3,93.7 50.5,59.8 81.1,133.7 40.4,157.2Z" fill="#fffdf6" stroke="#1b1814" stroke-width="2.4" stroke-linejoin="round"/><path d="M50.5,59.8 116.1,42.2 126.5,121.5 81.1,133.7Z" fill="#f6e3a3" stroke="#1b1814" stroke-width="2.4" stroke-linejoin="round"/><path d="M116.1,42.2 183.9,42.2 173.5,121.5 126.5,121.5Z" fill="#fbf1cf" stroke="#1b1814" stroke-width="2.4" stroke-linejoin="round"/><path d="M150,-100 253.5,-86.4 217.3,48.9 150,40Z" fill="#f6e3a3" stroke="#1b1814" stroke-width="2.4" stroke-linejoin="round"/><path d="M253.5,-86.4 350,-46.4 280,74.8 217.3,48.9Z" fill="#fffdf6" stroke="#1b1814" stroke-width="2.4" stroke-linejoin="round"/><path d="M350,-46.4 432.8,17.2 333.8,116.2 280,74.8Z" fill="#ebc35f" stroke="#1b1814" stroke-width="2.4" stroke-linejoin="round"/><path d="M432.8,17.2 496.4,100 375.2,170 333.8,116.2Z" fill="#f6e3a3" stroke="#1b1814" stroke-width="2.4" stroke-linejoin="round"/><path d="M496.4,100 536.4,196.5 401.1,232.7 375.2,170Z" fill="#f6e3a3" stroke="#1b1814" stroke-width="2.4" stroke-linejoin="round"/><path d="M536.4,196.5 550,300 410,300 401.1,232.7Z" fill="#fffdf6" stroke="#1b1814" stroke-width="2.4" stroke-linejoin="round"/><path d="M550,300 536.4,403.5 401.1,367.3 410,300Z" fill="#f2d27a" stroke="#1b1814" stroke-width="2.4" stroke-linejoin="round"/><path d="M536.4,403.5 496.4,500 375.2,430 401.1,367.3Z" fill="#fff8e4" stroke="#1b1814" stroke-width="2.4" stroke-linejoin="round"/><path d="M496.4,500 432.8,582.8 333.8,483.8 375.2,430Z" fill="#f0cd6e" stroke="#1b1814" stroke-width="2.4" stroke-linejoin="round"/><path d="M432.8,582.8 350,646.4 280,525.2 333.8,483.8Z" fill="#fffdf6" stroke="#1b1814" stroke-width="2.4" stroke-linejoin="round"/><path d="M350,646.4 253.5,686.4 217.3,551.1 280,525.2Z" fill="#f6e3a3" stroke="#1b1814" stroke-width="2.4" stroke-linejoin="round"/><path d="M253.5,686.4 150,700 150,560 217.3,551.1Z" fill="#fffdf6" stroke="#1b1814" stroke-width="2.4" stroke-linejoin="round"/><path d="M150,700 46.5,686.4 82.7,551.1 150,560Z" fill="#f0cd6e" stroke="#1b1814" stroke-width="2.4" stroke-linejoin="round"/><path d="M46.5,686.4 -50,646.4 20,525.2 82.7,551.1Z" fill="#fbf1cf" stroke="#1b1814" stroke-width="2.4" stroke-linejoin="round"/><path d="M-50,646.4 -132.8,582.8 -33.8,483.8 20,525.2Z" fill="#f2d27a" stroke="#1b1814" stroke-width="2.4" stroke-linejoin="round"/><path d="M-132.8,582.8 -196.4,500 -75.2,430 -33.8,483.8Z" fill="#f6e3a3" stroke="#1b1814" stroke-width="2.4" stroke-linejoin="round"/><path d="M-196.4,500 -236.4,403.5 -101.1,367.3 -75.2,430Z" fill="#f0cd6e" stroke="#1b1814" stroke-width="2.4" stroke-linejoin="round"/><path d="M-236.4,403.5 -250,300 -110,300 -101.1,367.3Z" fill="#fff8e4" stroke="#1b1814" stroke-width="2.4" stroke-linejoin="round"/><path d="M-250,300 -236.4,196.5 -101.1,232.7 -110,300Z" fill="#f2d27a" stroke="#1b1814" stroke-width="2.4" stroke-linejoin="round"/><path d="M-236.4,196.5 -196.4,100 -75.2,170 -101.1,232.7Z" fill="#fffdf6" stroke="#1b1814" stroke-width="2.4" stroke-linejoin="round"/><path d="M-196.4,100 -132.8,17.2 -33.8,116.2 -75.2,170Z" fill="#f2d27a" stroke="#1b1814" stroke-width="2.4" stroke-linejoin="round"/><path d="M-132.8,17.2 -50,-46.4 20,74.8 -33.8,116.2Z" fill="#fff8e4" stroke="#1b1814" stroke-width="2.4" stroke-linejoin="round"/><path d="M-50,-46.4 46.5,-86.4 82.7,48.9 20,74.8Z" fill="#f6e3a3" stroke="#1b1814" stroke-width="2.4" stroke-linejoin="round"/><path d="M46.5,-86.4 150,-100 150,40 82.7,48.9Z" fill="#f6e3a3" stroke="#1b1814" stroke-width="2.4" stroke-linejoin="round"/><rect width="300" height="390" fill="url(#ahg)"/><path d="M9,344.8 31.6,339.2 38.8,365.4 2.5,375.8Z" fill="#5f5a52" stroke="#1b1814" stroke-width="2.2" stroke-linejoin="round"/><path d="M2.5,375.8 38.8,365.4 31.6,392 9,392Z" fill="#5f5a52" stroke="#1b1814" stroke-width="2.2" stroke-linejoin="round"/><path d="M31.6,339.2 56.8,354.1 55.6,365.6 38.8,365.4Z" fill="#3a3732" stroke="#1b1814" stroke-width="2.2" stroke-linejoin="round"/><path d="M38.8,365.4 55.6,365.6 56.8,392 31.6,392Z" fill="#5f5a52" stroke="#1b1814" stroke-width="2.2" stroke-linejoin="round"/><path d="M56.8,354.1 82.2,337.2 79.2,371.5 55.6,365.6Z" fill="#5f5a52" stroke="#1b1814" stroke-width="2.2" stroke-linejoin="round"/><path d="M55.6,365.6 79.2,371.5 82.2,392 56.8,392Z" fill="#4a4640" stroke="#1b1814" stroke-width="2.2" stroke-linejoin="round"/><path d="M82.2,337.2 100.2,352.4 94.8,372.4 79.2,371.5Z" fill="#6f695f" stroke="#1b1814" stroke-width="2.2" stroke-linejoin="round"/><path d="M79.2,371.5 94.8,372.4 100.2,392 82.2,392Z" fill="#5f5a52" stroke="#1b1814" stroke-width="2.2" stroke-linejoin="round"/><path d="M100.2,352.4 116.3,337.5 109.1,366.1 94.8,372.4Z" fill="#4a4640" stroke="#1b1814" stroke-width="2.2" stroke-linejoin="round"/><path d="M94.8,372.4 109.1,366.1 116.3,392 100.2,392Z" fill="#3a3732" stroke="#1b1814" stroke-width="2.2" stroke-linejoin="round"/><path d="M116.3,337.5 137.6,349.7 142.6,368.8 109.1,366.1Z" fill="#4a4640" stroke="#1b1814" stroke-width="2.2" stroke-linejoin="round"/><path d="M109.1,366.1 142.6,368.8 137.6,392 116.3,392Z" fill="#4a4640" stroke="#1b1814" stroke-width="2.2" stroke-linejoin="round"/><path d="M137.6,349.7 157.4,342.7 156.1,371.2 142.6,368.8Z" fill="#6f695f" stroke="#1b1814" stroke-width="2.2" stroke-linejoin="round"/><path d="M142.6,368.8 156.1,371.2 157.4,392 137.6,392Z" fill="#4a4640" stroke="#1b1814" stroke-width="2.2" stroke-linejoin="round"/><path d="M157.4,342.7 184.8,344.1 184.4,368.6 156.1,371.2Z" fill="#6f695f" stroke="#1b1814" stroke-width="2.2" stroke-linejoin="round"/><path d="M156.1,371.2 184.4,368.6 184.8,392 157.4,392Z" fill="#4a4640" stroke="#1b1814" stroke-width="2.2" stroke-linejoin="round"/><path d="M184.8,344.1 210.4,352.8 202.9,372.7 184.4,368.6Z" fill="#4a4640" stroke="#1b1814" stroke-width="2.2" stroke-linejoin="round"/><path d="M184.4,368.6 202.9,372.7 210.4,392 184.8,392Z" fill="#3a3732" stroke="#1b1814" stroke-width="2.2" stroke-linejoin="round"/><path d="M210.4,352.8 234.8,336.4 242.3,375.7 202.9,372.7Z" fill="#5f5a52" stroke="#1b1814" stroke-width="2.2" stroke-linejoin="round"/><path d="M202.9,372.7 242.3,375.7 234.8,392 210.4,392Z" fill="#4a4640" stroke="#1b1814" stroke-width="2.2" stroke-linejoin="round"/><path d="M234.8,336.4 258.7,337.2 261.3,368.3 242.3,375.7Z" fill="#4a4640" stroke="#1b1814" stroke-width="2.2" stroke-linejoin="round"/><path d="M242.3,375.7 261.3,368.3 258.7,392 234.8,392Z" fill="#3a3732" stroke="#1b1814" stroke-width="2.2" stroke-linejoin="round"/><path d="M258.7,337.2 283.9,354.3 281.7,372.3 261.3,368.3Z" fill="#3a3732" stroke="#1b1814" stroke-width="2.2" stroke-linejoin="round"/><path d="M261.3,368.3 281.7,372.3 283.9,392 258.7,392Z" fill="#4a4640" stroke="#1b1814" stroke-width="2.2" stroke-linejoin="round"/><path d="M283.9,354.3 302,346.2 304.7,365.4 281.7,372.3Z" fill="#6f695f" stroke="#1b1814" stroke-width="2.2" stroke-linejoin="round"/><path d="M281.7,372.3 304.7,365.4 302,392 283.9,392Z" fill="#5f5a52" stroke="#1b1814" stroke-width="2.2" stroke-linejoin="round"/><path d="M143.7,310.4 153.9,306.9 152.5,316Z" fill="#c9c1b0" stroke="#1b1814" stroke-width="1.4" stroke-linejoin="round"/><path d="M79,291.1 72.1,296.7 70.5,289.2Z" fill="#c9c1b0" stroke="#1b1814" stroke-width="1.4" stroke-linejoin="round"/><path d="M77.7,331.9 86.6,330.9 83.8,338Z" fill="#9a9387" stroke="#1b1814" stroke-width="1.4" stroke-linejoin="round"/><path d="M75.8,319.7 64.6,324.2 65.6,313.8Z" fill="#c9c1b0" stroke="#1b1814" stroke-width="1.4" stroke-linejoin="round"/><path d="M259,318.9 260,325.6 254.5,323.7Z" fill="#e8e0cc" stroke="#1b1814" stroke-width="1.4" stroke-linejoin="round"/><path d="M37.3,311.8 25.9,317.1 26.3,306.3Z" fill="#e8e0cc" stroke="#1b1814" stroke-width="1.4" stroke-linejoin="round"/><path d="M57,324.1 66.6,331.2 57.4,335.7Z" fill="#c9c1b0" stroke="#1b1814" stroke-width="1.4" stroke-linejoin="round"/><path d="M181.2,290 189.1,285.1 189.8,293Z" fill="#e8e0cc" stroke="#1b1814" stroke-width="1.4" stroke-linejoin="round"/><path d="M111.6,310.9 115.8,318.6 108.3,318.7Z" fill="#c9c1b0" stroke="#1b1814" stroke-width="1.4" stroke-linejoin="round"/><path d="M99.6,325.2 94.2,330.5 92.4,324.3Z" fill="#e8e0cc" stroke="#1b1814" stroke-width="1.4" stroke-linejoin="round"/><path d="M185.8,295.7 191.5,305.4 181.8,305.9Z" fill="#e8e0cc" stroke="#1b1814" stroke-width="1.4" stroke-linejoin="round"/><path d="M90.2,319.9 80.5,315.7 87.5,310Z" fill="#c9c1b0" stroke="#1b1814" stroke-width="1.4" stroke-linejoin="round"/><path d="M134,289.4 126.6,293.9 126.1,286.5Z" fill="#e8e0cc" stroke="#1b1814" stroke-width="1.4" stroke-linejoin="round"/><path d="M167.9,324.4 163.4,313 174,314.1Z" fill="#9a9387" stroke="#1b1814" stroke-width="1.4" stroke-linejoin="round"/><path d="M176,300 174.7,302.2 150,300Z" fill="#fff8e0" stroke="#1b1814" stroke-width="2" stroke-linejoin="round"/><path d="M174.7,302.2 171,304.3 150,300Z" fill="#ffffff" stroke="#1b1814" stroke-width="2" stroke-linejoin="round"/><path d="M171,304.3 165.3,305.9 150,300Z" fill="#ffffff" stroke="#1b1814" stroke-width="2" stroke-linejoin="round"/><path d="M165.3,305.9 158,306.9 150,300Z" fill="#fff8e0" stroke="#1b1814" stroke-width="2" stroke-linejoin="round"/><path d="M158,306.9 150,307.3 150,300Z" fill="#ffffff" stroke="#1b1814" stroke-width="2" stroke-linejoin="round"/><path d="M150,307.3 142,306.9 150,300Z" fill="#ffffff" stroke="#1b1814" stroke-width="2" stroke-linejoin="round"/><path d="M142,306.9 134.7,305.9 150,300Z" fill="#fff8e0" stroke="#1b1814" stroke-width="2" stroke-linejoin="round"/><path d="M134.7,305.9 129,304.3 150,300Z" fill="#ffffff" stroke="#1b1814" stroke-width="2" stroke-linejoin="round"/><path d="M129,304.3 125.3,302.2 150,300Z" fill="#ffffff" stroke="#1b1814" stroke-width="2" stroke-linejoin="round"/><path d="M125.3,302.2 124,300 150,300Z" fill="#fff8e0" stroke="#1b1814" stroke-width="2" stroke-linejoin="round"/><path d="M124,300 125.3,297.8 150,300Z" fill="#ffffff" stroke="#1b1814" stroke-width="2" stroke-linejoin="round"/><path d="M125.3,297.8 129,295.7 150,300Z" fill="#ffffff" stroke="#1b1814" stroke-width="2" stroke-linejoin="round"/><path d="M129,295.7 134.7,294.1 150,300Z" fill="#fff8e0" stroke="#1b1814" stroke-width="2" stroke-linejoin="round"/><path d="M134.7,294.1 142,293.1 150,300Z" fill="#ffffff" stroke="#1b1814" stroke-width="2" stroke-linejoin="round"/><path d="M142,293.1 150,292.7 150,300Z" fill="#ffffff" stroke="#1b1814" stroke-width="2" stroke-linejoin="round"/><path d="M150,292.7 158,293.1 150,300Z" fill="#fff8e0" stroke="#1b1814" stroke-width="2" stroke-linejoin="round"/><path d="M158,293.1 165.3,294.1 150,300Z" fill="#ffffff" stroke="#1b1814" stroke-width="2" stroke-linejoin="round"/><path d="M165.3,294.1 171,295.7 150,300Z" fill="#ffffff" stroke="#1b1814" stroke-width="2" stroke-linejoin="round"/><path d="M171,295.7 174.7,297.8 150,300Z" fill="#fff8e0" stroke="#1b1814" stroke-width="2" stroke-linejoin="round"/><path d="M174.7,297.8 176,300 150,300Z" fill="#ffffff" stroke="#1b1814" stroke-width="2" stroke-linejoin="round"/><path d="M205.3,302.5 199.9,307.1 173.2,303.3 175.7,301.1Z" fill="#fbeec4" stroke="#1b1814" stroke-width="2" stroke-linejoin="round"/><path d="M199.9,307.1 189.6,311.1 168.4,305.1 173.2,303.3Z" fill="#fbeec4" stroke="#1b1814" stroke-width="2" stroke-linejoin="round"/><path d="M189.6,311.1 175.4,314 161.8,306.5 168.4,305.1Z" fill="#f7e2a0" stroke="#1b1814" stroke-width="2" stroke-linejoin="round"/><path d="M175.4,314 158.8,315.5 154.1,307.2 161.8,306.5Z" fill="#fbeec4" stroke="#1b1814" stroke-width="2" stroke-linejoin="round"/><path d="M158.8,315.5 141.2,315.5 145.9,307.2 154.1,307.2Z" fill="#fbeec4" stroke="#1b1814" stroke-width="2" stroke-linejoin="round"/><path d="M141.2,315.5 124.6,314 138.2,306.5 145.9,307.2Z" fill="#f7e2a0" stroke="#1b1814" stroke-width="2" stroke-linejoin="round"/><path d="M124.6,314 110.4,311.1 131.6,305.1 138.2,306.5Z" fill="#fbeec4" stroke="#1b1814" stroke-width="2" stroke-linejoin="round"/><path d="M110.4,311.1 100.1,307.1 126.8,303.3 131.6,305.1Z" fill="#fbeec4" stroke="#1b1814" stroke-width="2" stroke-linejoin="round"/><path d="M100.1,307.1 94.7,302.5 124.3,301.1 126.8,303.3Z" fill="#f7e2a0" stroke="#1b1814" stroke-width="2" stroke-linejoin="round"/><path d="M94.7,302.5 94.7,297.5 124.3,298.9 124.3,301.1Z" fill="#fbeec4" stroke="#1b1814" stroke-width="2" stroke-linejoin="round"/><path d="M94.7,297.5 100.1,292.9 126.8,296.7 124.3,298.9Z" fill="#fbeec4" stroke="#1b1814" stroke-width="2" stroke-linejoin="round"/><path d="M100.1,292.9 110.4,288.9 131.6,294.9 126.8,296.7Z" fill="#f7e2a0" stroke="#1b1814" stroke-width="2" stroke-linejoin="round"/><path d="M110.4,288.9 124.6,286 138.2,293.5 131.6,294.9Z" fill="#fbeec4" stroke="#1b1814" stroke-width="2" stroke-linejoin="round"/><path d="M124.6,286 141.2,284.5 145.9,292.8 138.2,293.5Z" fill="#fbeec4" stroke="#1b1814" stroke-width="2" stroke-linejoin="round"/><path d="M141.2,284.5 158.8,284.5 154.1,292.8 145.9,292.8Z" fill="#f7e2a0" stroke="#1b1814" stroke-width="2" stroke-linejoin="round"/><path d="M158.8,284.5 175.4,286 161.8,293.5 154.1,292.8Z" fill="#fbeec4" stroke="#1b1814" stroke-width="2" stroke-linejoin="round"/><path d="M175.4,286 189.6,288.9 168.4,294.9 161.8,293.5Z" fill="#fbeec4" stroke="#1b1814" stroke-width="2" stroke-linejoin="round"/><path d="M189.6,288.9 199.9,292.9 173.2,296.7 168.4,294.9Z" fill="#f7e2a0" stroke="#1b1814" stroke-width="2" stroke-linejoin="round"/><path d="M199.9,292.9 205.3,297.5 175.7,298.9 173.2,296.7Z" fill="#fbeec4" stroke="#1b1814" stroke-width="2" stroke-linejoin="round"/><path d="M205.3,297.5 205.3,302.5 175.7,301.1 175.7,298.9Z" fill="#fbeec4" stroke="#1b1814" stroke-width="2" stroke-linejoin="round"/><path d="M240,300 235.6,307.8 203.3,304.8 206,300Z" fill="#f2d27a" stroke="#1b1814" stroke-width="2" stroke-linejoin="round"/><path d="M235.6,307.8 222.8,314.8 195.3,309.2 203.3,304.8Z" fill="#e9c35e" stroke="#1b1814" stroke-width="2" stroke-linejoin="round"/><path d="M222.8,314.8 202.9,320.4 182.9,312.7 195.3,309.2Z" fill="#f2d27a" stroke="#1b1814" stroke-width="2" stroke-linejoin="round"/><path d="M202.9,320.4 177.8,324 167.3,314.9 182.9,312.7Z" fill="#f2d27a" stroke="#1b1814" stroke-width="2" stroke-linejoin="round"/><path d="M177.8,324 150,325.2 150,315.7 167.3,314.9Z" fill="#e9c35e" stroke="#1b1814" stroke-width="2" stroke-linejoin="round"/><path d="M150,325.2 122.2,324 132.7,314.9 150,315.7Z" fill="#f2d27a" stroke="#1b1814" stroke-width="2" stroke-linejoin="round"/><path d="M122.2,324 97.1,320.4 117.1,312.7 132.7,314.9Z" fill="#f2d27a" stroke="#1b1814" stroke-width="2" stroke-linejoin="round"/><path d="M97.1,320.4 77.2,314.8 104.7,309.2 117.1,312.7Z" fill="#e9c35e" stroke="#1b1814" stroke-width="2" stroke-linejoin="round"/><path d="M77.2,314.8 64.4,307.8 96.7,304.8 104.7,309.2Z" fill="#f2d27a" stroke="#1b1814" stroke-width="2" stroke-linejoin="round"/><path d="M64.4,307.8 60,300 94,300 96.7,304.8Z" fill="#f2d27a" stroke="#1b1814" stroke-width="2" stroke-linejoin="round"/><path d="M60,300 64.4,292.2 96.7,295.2 94,300Z" fill="#e9c35e" stroke="#1b1814" stroke-width="2" stroke-linejoin="round"/><path d="M64.4,292.2 77.2,285.2 104.7,290.8 96.7,295.2Z" fill="#f2d27a" stroke="#1b1814" stroke-width="2" stroke-linejoin="round"/><path d="M77.2,285.2 97.1,279.6 117.1,287.3 104.7,290.8Z" fill="#f2d27a" stroke="#1b1814" stroke-width="2" stroke-linejoin="round"/><path d="M97.1,279.6 122.2,276 132.7,285.1 117.1,287.3Z" fill="#e9c35e" stroke="#1b1814" stroke-width="2" stroke-linejoin="round"/><path d="M122.2,276 150,274.8 150,284.3 132.7,285.1Z" fill="#f2d27a" stroke="#1b1814" stroke-width="2" stroke-linejoin="round"/><path d="M150,274.8 177.8,276 167.3,285.1 150,284.3Z" fill="#f2d27a" stroke="#1b1814" stroke-width="2" stroke-linejoin="round"/><path d="M177.8,276 202.9,279.6 182.9,287.3 167.3,285.1Z" fill="#e9c35e" stroke="#1b1814" stroke-width="2" stroke-linejoin="round"/><path d="M202.9,279.6 222.8,285.2 195.3,290.8 182.9,287.3Z" fill="#f2d27a" stroke="#1b1814" stroke-width="2" stroke-linejoin="round"/><path d="M222.8,285.2 235.6,292.2 203.3,295.2 195.3,290.8Z" fill="#f2d27a" stroke="#1b1814" stroke-width="2" stroke-linejoin="round"/><path d="M235.6,292.2 240,300 206,300 203.3,295.2Z" fill="#e9c35e" stroke="#1b1814" stroke-width="2" stroke-linejoin="round"/><path d="M272.5,305.4 260.5,315.8 230.2,311.4 238.9,303.9Z" fill="#d4a23c" stroke="#1b1814" stroke-width="2" stroke-linejoin="round"/><path d="M260.5,315.8 237.7,324.6 213.6,317.8 230.2,311.4Z" fill="#e3b653" stroke="#1b1814" stroke-width="2" stroke-linejoin="round"/><path d="M237.7,324.6 206.3,330.9 190.9,322.5 213.6,317.8Z" fill="#e3b653" stroke="#1b1814" stroke-width="2" stroke-linejoin="round"/><path d="M206.3,330.9 169.4,334.3 164.1,324.9 190.9,322.5Z" fill="#d4a23c" stroke="#1b1814" stroke-width="2" stroke-linejoin="round"/><path d="M169.4,334.3 130.6,334.3 135.9,324.9 164.1,324.9Z" fill="#e3b653" stroke="#1b1814" stroke-width="2" stroke-linejoin="round"/><path d="M130.6,334.3 93.7,330.9 109.1,322.5 135.9,324.9Z" fill="#e3b653" stroke="#1b1814" stroke-width="2" stroke-linejoin="round"/><path d="M93.7,330.9 62.3,324.6 86.4,317.8 109.1,322.5Z" fill="#d4a23c" stroke="#1b1814" stroke-width="2" stroke-linejoin="round"/><path d="M62.3,324.6 39.5,315.8 69.8,311.4 86.4,317.8Z" fill="#e3b653" stroke="#1b1814" stroke-width="2" stroke-linejoin="round"/><path d="M39.5,315.8 27.5,305.4 61.1,303.9 69.8,311.4Z" fill="#e3b653" stroke="#1b1814" stroke-width="2" stroke-linejoin="round"/><path d="M27.5,305.4 27.5,294.6 61.1,296.1 61.1,303.9Z" fill="#d4a23c" stroke="#1b1814" stroke-width="2" stroke-linejoin="round"/><path d="M27.5,294.6 39.5,284.2 69.8,288.6 61.1,296.1Z" fill="#e3b653" stroke="#1b1814" stroke-width="2" stroke-linejoin="round"/><path d="M39.5,284.2 62.3,275.4 86.4,282.2 69.8,288.6Z" fill="#e3b653" stroke="#1b1814" stroke-width="2" stroke-linejoin="round"/><path d="M62.3,275.4 93.7,269.1 109.1,277.5 86.4,282.2Z" fill="#d4a23c" stroke="#1b1814" stroke-width="2" stroke-linejoin="round"/><path d="M93.7,269.1 130.6,265.7 135.9,275.1 109.1,277.5Z" fill="#e3b653" stroke="#1b1814" stroke-width="2" stroke-linejoin="round"/><path d="M130.6,265.7 169.4,265.7 164.1,275.1 135.9,275.1Z" fill="#e3b653" stroke="#1b1814" stroke-width="2" stroke-linejoin="round"/><path d="M169.4,265.7 206.3,269.1 190.9,277.5 164.1,275.1Z" fill="#d4a23c" stroke="#1b1814" stroke-width="2" stroke-linejoin="round"/><path d="M206.3,269.1 237.7,275.4 213.6,282.2 190.9,277.5Z" fill="#e3b653" stroke="#1b1814" stroke-width="2" stroke-linejoin="round"/><path d="M237.7,275.4 260.5,284.2 230.2,288.6 213.6,282.2Z" fill="#e3b653" stroke="#1b1814" stroke-width="2" stroke-linejoin="round"/><path d="M260.5,284.2 272.5,294.6 238.9,296.1 230.2,288.6Z" fill="#d4a23c" stroke="#1b1814" stroke-width="2" stroke-linejoin="round"/><path d="M272.5,294.6 272.5,305.4 238.9,303.9 238.9,296.1Z" fill="#e3b653" stroke="#1b1814" stroke-width="2" stroke-linejoin="round"/><path d="M111.8,207 115.3,213.3 111.8,219.6 108.3,213.3Z" fill="#fff3c4" stroke="#1b1814" stroke-width="1.3" stroke-linejoin="round"/><path d="M234.5,234.3 239.3,242.8 234.5,251.4 229.8,242.8Z" fill="#ffffff" stroke="#1b1814" stroke-width="1.3" stroke-linejoin="round"/><path d="M237.5,256.4 243,266.4 237.5,276.5 231.9,266.4Z" fill="#fff3c4" stroke="#1b1814" stroke-width="1.3" stroke-linejoin="round"/><path d="M225.2,268 230.8,278.1 225.2,288.2 219.6,278.1Z" fill="#fff3c4" stroke="#1b1814" stroke-width="1.3" stroke-linejoin="round"/><path d="M263.9,271.2 268.1,278.9 263.9,286.6 259.6,278.9Z" fill="#ffffff" stroke="#1b1814" stroke-width="1.3" stroke-linejoin="round"/><path d="M98.7,165.7 102.7,172.9 98.7,180 94.8,172.9Z" fill="#ffffff" stroke="#1b1814" stroke-width="1.3" stroke-linejoin="round"/><path d="M269.9,244.6 273.4,250.9 269.9,257.3 266.3,250.9Z" fill="#fff3c4" stroke="#1b1814" stroke-width="1.3" stroke-linejoin="round"/><path d="M246.1,269.3 251.4,278.8 246.1,288.3 240.8,278.8Z" fill="#fff3c4" stroke="#1b1814" stroke-width="1.3" stroke-linejoin="round"/><path d="M268.3,279.2 271.8,285.4 268.3,291.7 264.8,285.4Z" fill="#fff3c4" stroke="#1b1814" stroke-width="1.3" stroke-linejoin="round"/><path d="M238.9,193.1 242.8,200 238.9,206.9 235.1,200Z" fill="#fff3c4" stroke="#1b1814" stroke-width="1.3" stroke-linejoin="round"/><path d="M239.6,214.3 245.3,224.6 239.6,234.8 233.8,224.6Z" fill="#fff3c4" stroke="#1b1814" stroke-width="1.3" stroke-linejoin="round"/><path d="M223.8,189.5 227.8,196.6 223.8,203.8 219.8,196.6Z" fill="#ffffff" stroke="#1b1814" stroke-width="1.3" stroke-linejoin="round"/><path d="M249.6,220.5 253.5,227.6 249.6,234.6 245.7,227.6Z" fill="#fff3c4" stroke="#1b1814" stroke-width="1.3" stroke-linejoin="round"/><path d="M245.8,221.3 249.9,228.7 245.8,236 241.7,228.7Z" fill="#ffffff" stroke="#1b1814" stroke-width="1.3" stroke-linejoin="round"/><path d="M245.3,272.5 248.9,278.9 245.3,285.4 241.8,278.9Z" fill="#ffffff" stroke="#1b1814" stroke-width="1.3" stroke-linejoin="round"/><path d="M68.3,167.3 73.1,175.9 68.3,184.5 63.5,175.9Z" fill="#ffffff" stroke="#1b1814" stroke-width="1.3" stroke-linejoin="round"/><path d="M43.1,192.8 46.8,199.4 43.1,205.9 39.5,199.4Z" fill="#ffffff" stroke="#1b1814" stroke-width="1.3" stroke-linejoin="round"/><path d="M260.8,255.4 264,261.1 260.8,266.8 257.6,261.1Z" fill="#fff3c4" stroke="#1b1814" stroke-width="1.3" stroke-linejoin="round"/><path d="M126 0 H174 L205 300 H95Z" fill="url(#ahb)" opacity=".55"/><path d="M138,9 145.2,9 140.9,120 127.2,120Z" fill="#fff3c8" stroke="#1b1814" stroke-width="2.4" stroke-linejoin="round"/><path d="M127.2,120 140.9,120 134,296 110,296Z" fill="#fbe7a4" stroke="#1b1814" stroke-width="2.4" stroke-linejoin="round"/><path d="M145.2,9 154.8,9 157.2,70 142.8,70Z" fill="#ffffff" stroke="#1b1814" stroke-width="2.4" stroke-linejoin="round"/><path d="M142.8,70 157.2,70 161.9,190 138.1,190Z" fill="#ffffff" stroke="#1b1814" stroke-width="2.4" stroke-linejoin="round"/><path d="M138.1,190 161.9,190 166,296 134,296Z" fill="#fffbe8" stroke="#1b1814" stroke-width="2.4" stroke-linejoin="round"/><path d="M154.8,9 162,9 175.8,150 160.3,150Z" fill="#fbe7a4" stroke="#1b1814" stroke-width="2.4" stroke-linejoin="round"/><path d="M160.3,150 175.8,150 190,296 166,296Z" fill="#fff3c8" stroke="#1b1814" stroke-width="2.4" stroke-linejoin="round"/><path d="M138 9 L110 296 M162 9 L190 296" stroke="#1b1814" stroke-width="5"/><path d="M208,296 166.6,299.1 191,314.5 156.9,303.5 150,322.1 143.1,303.5 109,314.5 133.4,299.1 92,296 133.4,292.9 109,277.5 143.1,288.5 150,269.9 156.9,288.5 191,277.5 166.6,292.9Z" fill="#ffffff" stroke="#1b1814" stroke-width="3" stroke-linejoin="round"/></g><rect x="9" y="9" width="282" height="372" rx="12" fill="none" stroke="#1b1814" stroke-width="5"/><rect x="4" y="4" width="292" height="382" rx="15" fill="none" stroke="#c9a54a" stroke-width="1.6"/><rect x="12" y="12" width="64" height="112" rx="11" fill="#fffaf0" stroke="#1b1814" stroke-width="4.5"/><path d="M4 53 L22 3 L40 53 M10.5 37 L33.5 37" transform="translate(22 22)" fill="none" stroke="#111018" stroke-width="9.5" stroke-linejoin="round"/><path d="M20 38 C13 31 1 23 1 13 C1 6.5 5.5 2 11 2 C15 2 18.5 4.5 20 8.5 C21.5 4.5 25 2 29 2 C34.5 2 39 6.5 39 13 C39 23 27 31 20 38Z" transform="translate(26 83) scale(.9)" fill="#c3122b"/></svg>